<?xml version="1.0" encoding="UTF-8" standalone="no"?>
<!-- Created with Inkscape (http://www.inkscape.org/) -->

<svg
   xmlns:dc="http://purl.org/dc/elements/1.1/"
   xmlns:cc="http://creativecommons.org/ns#"
   xmlns:rdf="http://www.w3.org/1999/02/22-rdf-syntax-ns#"
   xmlns:svg="http://www.w3.org/2000/svg"
   xmlns="http://www.w3.org/2000/svg"
   xmlns:xlink="http://www.w3.org/1999/xlink"
   xmlns:sodipodi="http://sodipodi.sourceforge.net/DTD/sodipodi-0.dtd"
   xmlns:inkscape="http://www.inkscape.org/namespaces/inkscape"
   version="1.0"
   width="96"
   height="96"
   id="svg2"
   style="display:inline"
   inkscape:version="0.48.5 r10040"
   sodipodi:docname="emblem-symbolic-link.svg">
  <sodipodi:namedview
     pagecolor="#757f75"
     bordercolor="#666666"
     borderopacity="1"
     objecttolerance="10"
     gridtolerance="10"
     guidetolerance="10"
     inkscape:pageopacity="1"
     inkscape:pageshadow="2"
     inkscape:window-width="1274"
     inkscape:window-height="636"
     id="namedview20"
     showgrid="false"
     inkscape:zoom="4.4848566"
     inkscape:cx="-2.5594167"
     inkscape:cy="44.6404"
     inkscape:window-x="73"
     inkscape:window-y="44"
     inkscape:window-maximized="0"
     inkscape:current-layer="svg2" />
  <defs
     id="defs4">
    <linearGradient
       x1="7.1904788"
       y1="6.9551144"
       x2="7.1904788"
       y2="18.319494"
       id="linearGradient4012"
       gradientUnits="userSpaceOnUse"
       gradientTransform="scale(1.1467263,0.8720476)">
      <stop
         id="stop4014"
         style="stop-color:#323232;stop-opacity:1"
         offset="0" />
      <stop
         id="stop4016"
         style="stop-color:#787878;stop-opacity:1"
         offset="1" />
    </linearGradient>
    <linearGradient
       x1="17.506266"
       y1="-42.696442"
       x2="17.506266"
       y2="-84.79258"
       id="linearGradient2884"
       xlink:href="#linearGradient4012"
       gradientUnits="userSpaceOnUse"
       gradientTransform="matrix(1.3690757,0,0,-1.3690757,28.199165,-112.91297)" />
    <clipPath
       id="clipPath3703">
      <path
         d="m -100,-74 0,96 96,0 0,-96 -96,0 z M -71.6875,-54.15625 -28.03125,-54 -28,-10.5 -42.09375,-24.59375 c -14.967412,6.310412 -22.381278,18.460048 -24.9375,28 -9.605951,-14.408924 -4.606056,-31.867968 9.4375,-43.46875 L -71.6875,-54.15625 z"
         inkscape:connector-curvature="0"
         id="path3705"
         style="opacity:0.3;color:#000000;fill:#ff0000;stroke:none;stroke-width:4;marker:none;visibility:visible;display:inline;overflow:visible;enable-background:accumulate" />
    </clipPath>
    <filter
       color-interpolation-filters="sRGB"
       id="filter3707">
      <feGaussianBlur
         id="feGaussianBlur3709"
         stdDeviation="0.76172645" />
    </filter>
    <linearGradient
       inkscape:collect="always"
       xlink:href="#linearGradient4012"
       id="linearGradient3002"
       gradientUnits="userSpaceOnUse"
       gradientTransform="matrix(1.3690757,0,0,-1.3690757,28.199165,-38.91297)"
       x1="17.506266"
       y1="-42.696442"
       x2="17.506266"
       y2="-84.79258" />
    <linearGradient
       inkscape:collect="always"
       xlink:href="#linearGradient4012"
       id="linearGradient3001"
       gradientUnits="userSpaceOnUse"
       gradientTransform="matrix(1.3690757,0,0,-1.3690757,28.199165,-38.91297)"
       x1="17.506266"
       y1="-42.696442"
       x2="17.506266"
       y2="-84.79258" />
  </defs>
  <metadata
     id="metadata7">
    <rdf:RDF>
      <cc:Work
         rdf:about="">
        <dc:format>image/svg+xml</dc:format>
        <dc:type
           rdf:resource="http://purl.org/dc/dcmitype/StillImage" />
        <dc:title></dc:title>
        <cc:license
           rdf:resource="" />
      </cc:Work>
    </rdf:RDF>
  </metadata>
  <g
     id="g2995"
     transform="translate(22,16)">
    <path
       d="m -71.685828,-54.171135 14.09736,14.097373 c -14.043556,11.600782 -19.062817,29.060098 -9.456866,43.469022 2.556222,-9.539952 9.98055,-21.668884 24.947962,-27.979296 L -28,-10.485304 -28.046592,-54 -71.685828,-54.171135 z"
       inkscape:connector-curvature="0"
       transform="translate(100,74)"
       clip-path="url(#clipPath3703)"
       id="path3693"
       style="opacity:0.2;fill:none;stroke:#ffffff;stroke-width:4;stroke-miterlimit:4;stroke-dasharray:none;display:inline;filter:url(#filter3707)" />
    <path
       d="m 28.314172,19.828865 14.09736,14.097373 C 28.367976,45.52702 23.348715,62.986336 32.954666,77.39526 35.510888,67.855308 42.935216,55.726376 57.902628,49.415964 L 72,63.514696 71.953408,20 28.314172,19.828865 z"
       inkscape:connector-curvature="0"
       id="path28"
       style="fill:url(#linearGradient3001);fill-opacity:1;display:inline" />
    <path
       d="m 28.375,19.875 4,4 L 72,24 72,20 28.375,19.875 z M 40.25,35.75 C 32.018736,43.424532 27.575745,53.276752 28.125,63 28.910141,53.824436 34.0177,44.778608 42.375,37.875 L 40.25,35.75 z"
       inkscape:connector-curvature="0"
       id="path3713"
       style="opacity:0.3;fill:#000000;fill-opacity:1;display:inline" />
    <path
       d="M 28.3125,19.84375 42.40625,33.9375 c -14.043556,11.600782 -19.043451,29.059826 -9.4375,43.46875 2.556222,-9.539952 9.970088,-21.689588 24.9375,-28 L 72,63.5 71.96875,20 28.3125,19.84375 z m 5.03125,2.09375 36.5625,0.125 L 69.9375,58.5 59.375,47.9375 A 2.0722699,2.0722699 0 0 0 57.09375,47.5 C 43.656547,53.16526 36.254323,63.279726 32.65625,72.4375 26.734622,59.810991 31.518167,45.609631 43.71875,35.53125 A 2.0722699,2.0722699 0 0 0 43.875,32.46875 L 33.34375,21.9375 z"
       inkscape:connector-curvature="0"
       id="path3711"
       style="fill:#000000;fill-opacity:1;stroke:#ffffff;stroke-width:2.20000005;stroke-miterlimit:4;stroke-opacity:1;stroke-dasharray:none;display:inline" />
  </g>
</svg>
